<svg xmlns="http://www.w3.org/2000/svg" width="261.341" height="145.176" viewBox="0 0 261.341 145.176">
  <g id="_2388602_book_books_decoration_interior_icon" data-name="2388602_book_books_decoration_interior_icon" transform="translate(-29.6 -160.4)">
    <g id="그룹_6" data-name="그룹 6" transform="translate(29.6 162.9)">
      <g id="그룹_5" data-name="그룹 5" transform="translate(31.567)">
        <path id="패스_15" data-name="패스 15" d="M302.719,209.644H142.172A23.422,23.422,0,0,1,118.8,186.272h0A23.422,23.422,0,0,1,142.172,162.9H302.546a1.041,1.041,0,0,1,.808,1.674c-4.559,5.309-16.274,22.449.231,43.4A1.055,1.055,0,0,1,302.719,209.644Z" transform="translate(-98.89 -162.9)" fill="#fff7c3"/>
        <path id="패스_16" data-name="패스 16" d="M345.819,290.644H185.272A23.422,23.422,0,0,1,161.9,267.272h0A23.422,23.422,0,0,1,185.272,243.9H345.646a1.041,1.041,0,0,1,.808,1.674c-4.559,5.309-16.274,22.449.231,43.4A1.055,1.055,0,0,1,345.819,290.644Z" transform="translate(-117.118 -197.156)" fill="#ebf2ff"/>
        <path id="패스_17" data-name="패스 17" d="M302.719,371.544H142.172A23.422,23.422,0,0,1,118.8,348.172h0A23.422,23.422,0,0,1,142.172,324.8H302.546a1.041,1.041,0,0,1,.808,1.674c-4.559,5.309-16.274,22.449.231,43.4A1.055,1.055,0,0,1,302.719,371.544Z" transform="translate(-98.89 -231.369)" fill="#ffd6c6"/>
        <path id="패스_18" data-name="패스 18" d="M268.219,209.644H107.672A23.422,23.422,0,0,1,84.3,186.272h0A23.422,23.422,0,0,1,107.672,162.9H268.046a1.041,1.041,0,0,1,.808,1.674c-4.559,5.309-16.274,22.449.231,43.4A1.055,1.055,0,0,1,268.219,209.644Z" transform="translate(-84.3 -162.9)" fill="none" stroke="#000" stroke-miterlimit="10" stroke-width="5"/>
        <path id="패스_19" data-name="패스 19" d="M311.319,290.644H150.772A23.422,23.422,0,0,1,127.4,267.272h0A23.422,23.422,0,0,1,150.772,243.9H311.146a1.041,1.041,0,0,1,.808,1.674c-4.559,5.309-16.274,22.449.231,43.4A1.055,1.055,0,0,1,311.319,290.644Z" transform="translate(-102.527 -197.156)" fill="none" stroke="#000" stroke-miterlimit="10" stroke-width="5"/>
        <path id="패스_20" data-name="패스 20" d="M268.219,371.544H107.672A23.422,23.422,0,0,1,84.3,348.172h0A23.422,23.422,0,0,1,107.672,324.8H268.046a1.041,1.041,0,0,1,.808,1.674c-4.559,5.309-16.274,22.449.231,43.4A1.055,1.055,0,0,1,268.219,371.544Z" transform="translate(-84.3 -231.369)" fill="none" stroke="#000" stroke-miterlimit="10" stroke-width="5"/>
        <path id="패스_21" data-name="패스 21" d="M201.8,197.5h37.511v50.149l-18.756-10.388L201.8,247.649Z" transform="translate(-133.992 -177.533)" fill="#fff"/>
        <path id="패스_22" data-name="패스 22" d="M189.5,197.5h37.511v50.149l-18.755-10.388L189.5,247.649Z" transform="translate(-128.79 -177.533)" fill="none" stroke="#000" stroke-miterlimit="10" stroke-width="5"/>
      </g>
      <line id="선_13" data-name="선 13" x1="7.906" transform="translate(0 140.176)" fill="none" stroke="#000" stroke-miterlimit="10" stroke-width="5"/>
      <line id="선_14" data-name="선 14" x2="39.069" transform="translate(15.87 140.176)" fill="none" stroke="#000" stroke-miterlimit="10" stroke-width="5"/>
      <line id="선_15" data-name="선 15" x2="10.907" transform="translate(143.985 116.861)" fill="none" stroke="#000" stroke-miterlimit="10" stroke-width="5"/>
      <line id="선_16" data-name="선 16" x2="56.151" transform="translate(140.753 19.967)" fill="none" stroke="#000" stroke-miterlimit="10" stroke-width="5"/>
      <line id="선_17" data-name="선 17" x2="10.965" transform="translate(65.385 19.967)" fill="none" stroke="#000" stroke-miterlimit="10" stroke-width="5"/>
    </g>
    <line id="선_18" data-name="선 18" x1="20.602" transform="translate(140.633 279.761)" fill="none" stroke="#000" stroke-miterlimit="10" stroke-width="5"/>
  </g>
</svg>
