<svg xmlns="http://www.w3.org/2000/svg" width="204.983" height="223.742" viewBox="0 0 204.983 223.742">
  <g id="_2388599_armchair_chair_decoration_interior_icon" data-name="2388599_armchair_chair_decoration_interior_icon" transform="translate(-68.42 -61.479)">
    <g id="그룹_4" data-name="그룹 4" transform="translate(70.955 63.98)">
      <g id="그룹_3" data-name="그룹 3">
        <g id="그룹_2" data-name="그룹 2">
          <path id="패스_8" data-name="패스 8" d="M166.992,404.5h0a10.167,10.167,0,0,1-6.835-12.576L175.3,340.692a10.167,10.167,0,0,1,12.576-6.835h0a10.167,10.167,0,0,1,6.835,12.576l-15.2,51.288A10.077,10.077,0,0,1,166.992,404.5Z" transform="translate(-111.195 -186.105)" fill="#fff7c3"/>
          <path id="패스_9" data-name="패스 9" d="M343.479,404.5h0a10.167,10.167,0,0,0,6.835-12.576l-15.146-51.234a10.167,10.167,0,0,0-12.576-6.835h0a10.167,10.167,0,0,0-6.835,12.576L330.9,397.667A10.171,10.171,0,0,0,343.479,404.5Z" transform="translate(-181.715 -186.105)" fill="#ffd6c6"/>
          <path id="패스_10" data-name="패스 10" d="M285.852,113.338c-2.625,4.757-8.311,19.028-8.858,55.061a28.688,28.688,0,0,1-6.78,18.317c-3.937,4.593-10.115,8.694-19.411,9.022-21.981.82-58.4,0-58.4,0s-36.471.82-58.4,0c-9.35-.328-15.474-4.429-19.411-9.022a28.688,28.688,0,0,1-6.78-18.317c-.547-35.978-6.233-50.3-8.858-55.061a1.361,1.361,0,0,1,1.148-2.023h18.1a21.133,21.133,0,0,0,15.638-6.944c28.1-30.62,48.445-33.3,55.663-33.08,1.914.055,3.882.055,5.8,0,7.218-.219,27.558,2.406,55.663,33.08a21.335,21.335,0,0,0,15.638,6.944h18.1A1.361,1.361,0,0,1,285.852,113.338Z" transform="translate(-83.572 -67.288)" fill="#ebf2ff"/>
          <path id="패스_11" data-name="패스 11" d="M270.119,108.718c-2.843,5.03-8.858,20.286-9.4,58.615a30.6,30.6,0,0,1-7.218,19.52c-4.21,4.866-10.717,9.241-20.668,9.623-23.4.875-62.169,0-62.169,0s-38.822.875-62.169,0c-9.951-.383-16.458-4.757-20.668-9.623a30.6,30.6,0,0,1-7.218-19.52c-.547-38.33-6.616-53.585-9.459-58.615a1.427,1.427,0,0,1,1.258-2.132H91.7A22.619,22.619,0,0,0,108.38,99.2c29.964-32.643,51.562-35.432,59.271-35.213,2.078.055,4.1.055,6.179,0,7.71-.219,29.308,2.57,59.271,35.213a22.53,22.53,0,0,0,16.677,7.382h19.3A1.414,1.414,0,0,1,270.119,108.718Z" transform="translate(-70.955 -63.98)" fill="none" stroke="#000" stroke-miterlimit="10" stroke-width="5"/>
          <path id="패스_12" data-name="패스 12" d="M150.192,403.8h0a10.167,10.167,0,0,1-6.835-12.576L158.5,339.992a10.167,10.167,0,0,1,12.576-6.835h0a10.167,10.167,0,0,1,6.835,12.576l-15.146,51.234A10.167,10.167,0,0,1,150.192,403.8Z" transform="translate(-103.581 -185.787)" fill="none" stroke="#000" stroke-miterlimit="10" stroke-width="5"/>
          <path id="패스_13" data-name="패스 13" d="M326.779,403.8h0a10.167,10.167,0,0,0,6.835-12.576l-15.146-51.234a10.167,10.167,0,0,0-12.576-6.835h0a10.167,10.167,0,0,0-6.835,12.576L314.2,396.967A10.167,10.167,0,0,0,326.779,403.8Z" transform="translate(-174.147 -185.787)" fill="none" stroke="#000" stroke-miterlimit="10" stroke-width="5"/>
          <line id="선_6" data-name="선 6" x2="64.247" transform="translate(67.498 147.369)" fill="none" stroke="#000" stroke-miterlimit="10" stroke-width="5"/>
          <line id="선_7" data-name="선 7" x2="57.303" y2="22.746" transform="translate(74.333 159.945)" fill="none" stroke="#000" stroke-miterlimit="10" stroke-width="5"/>
          <line id="선_8" data-name="선 8" y1="22.746" x2="57.303" transform="translate(67.607 159.945)" fill="none" stroke="#000" stroke-miterlimit="10" stroke-width="5"/>
          <line id="선_9" data-name="선 9" y2="14.927" transform="translate(99.649 132.442)" fill="none" stroke="#000" stroke-miterlimit="10" stroke-width="5"/>
        </g>
        <line id="선_10" data-name="선 10" x1="59.217" transform="translate(15.116 218.014)" fill="none" stroke="#000" stroke-miterlimit="10" stroke-width="5"/>
        <line id="선_11" data-name="선 11" x1="69.059" transform="translate(108.889 218.014)" fill="none" stroke="#000" stroke-miterlimit="10" stroke-width="5"/>
      </g>
      <path id="패스_14" data-name="패스 14" d="M186.3,229.143A39.538,39.538,0,0,1,216.428,215.2h15.091a39.607,39.607,0,0,1,28,11.647" transform="translate(-123.231 -132.515)" fill="none" stroke="#000" stroke-miterlimit="10" stroke-width="5"/>
    </g>
    <line id="선_12" data-name="선 12" y2="6.507" transform="translate(77.924 278.713)" fill="none" stroke="#000" stroke-miterlimit="10" stroke-width="5"/>
  </g>
</svg>
