<svg xmlns="http://www.w3.org/2000/svg" width="208.46" height="212.394" viewBox="0 0 208.46 212.394">
  <g id="_2388594_decoration_interior_lamp_light_icon" data-name="2388594_decoration_interior_lamp_light_icon" transform="translate(-59.9 -46)">
    <g id="그룹_1" data-name="그룹 1" transform="translate(74.907 60.625)">
      <path id="패스_1" data-name="패스 1" d="M166.124,78.3,90.478,173.362H87.2A96.717,96.717,0,0,1,166.124,78.3Z" transform="translate(-87.2 -76.636)" fill="#ffd6c6"/>
      <path id="패스_2" data-name="패스 2" d="M208.252,75.605,131.8,171.727H114.4L191.156,75.2c2.068-.151,4.135-.2,6.253-.2A96.317,96.317,0,0,1,208.252,75.605Z" transform="translate(-100.683 -75)" fill="#fff7c3"/>
      <path id="패스_3" data-name="패스 3" d="M329.082,175.345H184.9L258.882,82.3A96.814,96.814,0,0,1,329.082,175.345Z" transform="translate(-135.629 -78.619)" fill="#ebf2ff"/>
    </g>
    <path id="패스_4" data-name="패스 4" d="M255.8,168.027a96.7,96.7,0,1,0-193.4,0Z" transform="translate(0 -12.541)" fill="none" stroke="#fff" stroke-miterlimit="10" stroke-width="5"/>
    <path id="패스_5" data-name="패스 5" d="M254.2,341.419V263.1" transform="translate(-95.073 -107.614)" fill="none" stroke="#fff" stroke-miterlimit="10" stroke-width="5"/>
    <line id="선_1" data-name="선 1" y1="12.759" transform="translate(159.127 46)" fill="none" stroke="#fff" stroke-miterlimit="10" stroke-width="5"/>
    <path id="패스_6" data-name="패스 6" d="M284.69,440.489c0-12.2-12.86-22.089-28.7-22.089s-28.7,9.884-28.7,22.089Z" transform="translate(-81.739 -184.595)" fill="#fff7c3"/>
    <path id="패스_7" data-name="패스 7" d="M254.756,440.489c0-12.2-14.575-22.089-32.528-22.089S189.7,428.284,189.7,440.489Z" transform="translate(-63.101 -184.595)" fill="none" stroke="#fff" stroke-miterlimit="10" stroke-width="5"/>
    <line id="선_2" data-name="선 2" y2="35.403" transform="translate(118.227 155.486)" fill="none" stroke="#fff" stroke-miterlimit="10" stroke-width="5"/>
    <line id="선_3" data-name="선 3" x1="6.707" transform="translate(114.899 203.647)" fill="none" stroke="#fff" stroke-miterlimit="10" stroke-width="5"/>
    <line id="선_4" data-name="선 4" x1="11.65" transform="translate(114.899 255.894)" fill="none" stroke="#fff" stroke-miterlimit="10" stroke-width="5"/>
    <line id="선_5" data-name="선 5" x1="8.926" transform="translate(95.785 255.894)" fill="none" stroke="#fff" stroke-miterlimit="10" stroke-width="5"/>
  </g>
</svg>
